#!OML:ASF F:\VICON\USERDATA\INSTALL\rory3\rory3.ASF
:FULLY-SPECIFIED
:DEGREES
98
root -4.817916702664839 18.181718842914822 -3.126284137058252 -166.90039822390872 -0.1067767038885421 -175.1380701696611
lfemur -27.20131184408851 -13.995088735780996 -14.069072233695909
ltibia 30.258240534047932
lfoot 17.176654374847022 -42.306181964660915
ltoes 35.230758096478326
rfemur 18.452948817836578 -10.385903150138272 23.26652054318557
rtibia 11.4469649450379
rfoot 28.3198179194333 -31.762379256555263
rtoes 27.26255926734179
lowerback -9.341294034306767 10.608581888145745 11.160095621412962
upperback -10.62130632435709 13.969312060335636 1.7165459067521953
thorax -4.2780773729659725 5.708597147717411 -3.2922026820124026
lowerneck -13.760699074560915 -11.426129286214161 -1.0929274851118196
upperneck 16.86692647331137 -15.904802542311609 0.16615504729118769
head 7.630730829409597 -7.752793511367822 -1.4604660836236198
lclavicle -4.996895823371308e-15 -1.0123803884984208e-14
lhumerus 63.81709770504102 4.574977591299572 55.92597130748609
lradius 59.142870175559615
lwrist 21.56599792018691
lhand -11.75774808217666 34.16652411021625
lfingers 7.125020000000001
lthumb -167.55370888123068 -154.07935369785645
rclavicle -5.012262570706196e-15 -1.0206382770341395e-14
rhumerus 87.6724272793 18.8245691039232 -63.23084619562262
rradius 34.62402119344231
rwrist -34.19338641563425
rhand -37.04630587337627 13.35855320085382
rfingers 7.125020000000001
rthumb -14.080371308052596 -18.31062851676045
99
root -4.800734793135732 18.185410618923964 -3.1015337259150897 -167.21108592438668 0.4854120799966921 -175.2315488366624
lfemur -27.045400999303993 -13.71181642380665 -13.857136050894644
ltibia 30.292720880669695
lfoot 16.027289377052682 -41.33029618780479
ltoes 33.95090356098764
rfemur 18.512162792245114 -10.286792706708326 23.56626710034724
rtibia 11.827104964525835
rfoot 27.47920117489591 -31.02219710544427
rtoes 25.38665515203531
lowerback -9.107864560266089 10.707634782553033 10.749366022524056
upperback -10.13154167375112 13.630352107877972 1.6882536137003141
thorax -4.074823646076252 5.412157000660546 -3.141061996731037
lowerneck -13.89587748777641 -10.774518330740623 -0.6647453302699787
upperneck 16.786168545272787 -15.096022442350536 0.031606066317765524
head 7.700878252342862 -7.339706949736624 -1.4718938047499697
lclavicle -4.997565449069188e-15 -1.0166643262165547e-14
lhumerus 63.92321505606065 4.241684973303272 56.29086282530087
lradius 58.28521319677077
lwrist 21.61887211043023
lhand -11.83469374195718 33.94464368772357
lfingers 7.125020000000001
lthumb -168.4083379462229 -146.4654496905963
rclavicle -5.0119170226725315e-15 -1.0206057457167129e-14
rhumerus 86.21087396350586 19.15221210784664 -63.54255431891088
rradius 35.57902839358099
rwrist -35.39534742860268
rhand -38.73964408050384 12.773360986812834
rfingers 7.125020000000001
rthumb -15.79425919256643 -18.752351946469563
100
root -4.78924110690966 18.18411734251345 -3.077074038166763 -167.3810239268381 1.141824254572235 -175.2718773679515
lfemur -26.912924113454224 -13.5038931667902 -13.652927470090553
ltibia 30.31708790186805
lfoot 14.96615569238721 -40.11277213778589
ltoes 33.223499473826436
rfemur 18.52074777147299 -10.09798369257711 23.753377972841463
rtibia 12.13696342776072
rfoot 26.615478797213846 -30.10732741709502
rtoes 23.135085150634193
lowerback -8.864002156953198 10.595808639290773 10.297295066148846
upperback -9.697646132054388 13.339320506109729 1.6562033008819133
thorax -3.884514592959374 5.226740645895928 -3.021448110831873
lowerneck -13.971095489042945 -10.079646836065912 -0.2231104029612545
upperneck 16.6684489034116 -14.331664297087055 -0.11514969410783493
head 7.7600164800498215 -6.94314987842005 -1.4937259935622862
lclavicle -4.9997428293848255e-15 -1.0187029795149667e-14
lhumerus 63.8429199669103 3.738710494994443 56.70294194353319
lradius 57.54881914907981
lwrist 21.66355238145097
lhand -11.899137427463206 33.65158055771544
lfingers 7.125020000000001
lthumb -169.18529583308054 -138.4217988274537
rclavicle -5.011466054056713e-15 -1.0205772488967172e-14
rhumerus 84.7875457471788 19.505409336267217 -63.83025906862596
rradius 36.759949118799945
rwrist -36.60468141736142
rhand -40.39921504062931 12.003904569646377
rfingers 7.125020000000001
rthumb -17.48531621092537 -19.24184484030066
101
root -4.776536322577517 18.19133044700494 -3.057449411135502 -167.30828476278748 1.5481791250518597 -175.2838799659084
lfemur -26.80739847651019 -13.273323761622905 -13.45246511882755
ltibia 30.364057597940306
lfoot 13.62615942208506 -39.004746519839046
ltoes 31.654351357888775
rfemur 18.496549691205587 -9.975533088100768 24.029101636079567
rtibia 12.261783181363782
rfoot 25.740520761905017 -29.21418735707732
rtoes 20.83038605937292
lowerback -8.60675245937285 10.51459133134627 9.863024238216141
upperback -9.334374306686216 13.091414057317206 1.6248767489181801
thorax -3.714962464925817 5.143755591341053 -2.9029456276682746
lowerneck -14.006894796709403 -9.454477306140449 0.17409283620291405
upperneck 16.521662185125233 -13.599221378455425 -0.2364900497436242
head 7.804522310644016 -6.5853424782930645 -1.5127204918874462
lclavicle -5.003747046321311e-15 -1.0191531216634218e-14
lhumerus 63.71826471417668 3.1697167518737537 57.14718711302992
lradius 56.870190391910924
lwrist 21.503613641561405
lhand -11.645535411632531 33.33099980970256
lfingers 7.125020000000001
lthumb -169.7931699547896 -130.90942872117313
rclavicle -5.008655408846315e-15 -1.0203372984565839e-14
rhumerus 83.18133461306985 19.80455774659244 -64.25301026013028
rradius 38.11067453388674
rwrist -37.842569113468855
rhand -41.93432471321557 11.168771944896193
rfingers 7.125020000000001
rthumb -19.053355611552554 -19.7289582909874
